<?xml version="1.0" standalone="no"?>
<!DOCTYPE svg PUBLIC "-//W3C//DTD SVG 20010904//EN"
 "http://www.w3.org/TR/2001/REC-SVG-20010904/DTD/svg10.dtd">
<svg version="1.0" xmlns="http://www.w3.org/2000/svg"
 width="596.000000pt" height="125.000000pt" viewBox="0 0 596.000000 125.000000"
 preserveAspectRatio="xMidYMid meet">
<metadata>
Created by potrace 1.13, written by Peter Selinger 2001-2015
</metadata>
<g transform="translate(0.000000,125.000000) scale(0.100000,-0.100000)"
fill="#000000" stroke="none">
<path d="M0 625 l0 -625 265 0 265 0 2 625 3 625 -267 0 -268 0 0 -625z"/>
<path d="M1588 1243 c12 -2 32 -2 45 0 12 2 2 4 -23 4 -25 0 -35 -2 -22 -4z"/>
<path d="M2015 1240 c3 -5 26 -10 51 -10 24 0 44 5 44 10 0 6 -23 10 -51 10
-31 0 -48 -4 -44 -10z"/>
<path d="M2925 1240 c3 -5 17 -10 31 -10 13 0 24 5 24 10 0 6 -14 10 -31 10
-17 0 -28 -4 -24 -10z"/>
<path d="M4313 1185 c0 -38 2 -53 4 -32 2 20 2 52 0 70 -2 17 -4 1 -4 -38z"/>
<path d="M4674 1065 c0 -104 2 -146 3 -92 2 54 2 139 0 190 -1 51 -3 7 -3 -98z"/>
<path d="M5484 1010 c0 -135 2 -190 3 -122 2 67 2 177 0 245 -1 67 -3 12 -3
-123z"/>
<path d="M2119 1223 c-1 -5 -1 -12 0 -17 1 -5 4 -73 7 -152 l6 -143 -38 -4
-39 -4 36 -1 c35 -2 37 -4 43 -44 4 -24 9 -98 11 -165 3 -67 8 -129 11 -138 5
-11 -1 -15 -25 -15 -17 0 -31 -4 -31 -10 0 -5 14 -10 30 -10 25 0 30 -4 30
-25 0 -20 -5 -25 -25 -25 -14 0 -25 -4 -25 -10 0 -5 11 -10 25 -10 20 0 25 -5
25 -24 0 -19 -6 -26 -27 -29 -26 -4 -26 -4 5 -6 28 -1 32 -4 32 -28 0 -16 3
-71 6 -125 7 -96 7 -96 -17 -101 -23 -4 -23 -4 -1 -6 16 -1 22 -7 22 -26 0
-17 -6 -25 -17 -26 -14 0 -13 -2 5 -9 25 -11 29 -38 7 -46 -24 -9 -17 -24 10
-24 l25 0 0 615 0 615 -45 0 c-25 0 -46 -3 -46 -7z"/>
<path d="M2975 620 c0 -333 1 -469 2 -303 2 167 2 439 0 605 -1 167 -2 31 -2
-302z"/>
<path d="M2513 1133 c9 -2 25 -2 35 0 9 3 1 5 -18 5 -19 0 -27 -2 -17 -5z"/>
<path d="M1050 1120 c0 -5 11 -10 25 -10 14 0 25 5 25 10 0 6 -11 10 -25 10
-14 0 -25 -4 -25 -10z"/>
<path d="M2588 1113 c12 -2 30 -2 40 0 9 3 -1 5 -23 4 -22 0 -30 -2 -17 -4z"/>
<path d="M770 914 l0 -177 23 21 c12 11 38 22 57 25 l35 4 -32 1 -33 2 0 121
c0 115 -1 123 -25 151 l-25 30 0 -178z"/>
<path d="M1068 1083 c6 -2 18 -2 25 0 6 3 1 5 -13 5 -14 0 -19 -2 -12 -5z"/>
<path d="M1564 1066 c-3 -7 -4 -41 -2 -76 l3 -62 35 68 c19 37 37 71 38 76 2
4 -13 8 -32 8 -22 0 -39 -6 -42 -14z"/>
<path d="M2573 1038 c-2 -5 10 -8 26 -8 17 0 31 3 31 8 0 4 -12 7 -26 7 -14 0
-28 -3 -31 -7z"/>
<path d="M3190 635 l0 -385 100 0 c122 0 153 13 181 73 14 32 19 66 19 145 0
123 -12 155 -66 172 l-36 12 40 18 c53 24 66 64 60 181 -9 143 -40 169 -203
169 l-95 0 0 -385z m178 191 c3 -106 -4 -126 -44 -126 -24 0 -24 1 -24 116 l0
115 33 -3 32 -3 3 -99z m-2 -241 c13 -19 15 -45 12 -125 -3 -107 -9 -120 -55
-120 -23 0 -23 2 -23 128 0 71 3 132 7 135 14 15 43 6 59 -18z"/>
<path d="M3617 1013 c-3 -5 -8 -39 -12 -78 -3 -38 -22 -204 -41 -368 -19 -164
-34 -302 -34 -307 0 -6 22 -10 50 -10 56 0 53 -6 68 135 l7 70 41 3 42 3 6
-58 c4 -32 9 -79 12 -105 l6 -48 58 0 c54 0 57 1 54 23 -6 30 -84 722 -84 736
0 13 -166 16 -173 4z m97 -260 c4 -65 9 -135 13 -155 5 -37 5 -38 -26 -38 -23
0 -31 5 -31 18 -1 49 25 292 30 292 4 0 10 -53 14 -117z"/>
<path d="M3917 1013 c-4 -3 -7 -177 -7 -385 l0 -378 60 0 60 0 0 181 0 180 23
-7 c42 -12 47 -24 47 -99 0 -39 3 -113 6 -163 l7 -92 58 0 57 0 -4 37 c-2 21
-5 101 -7 177 -4 137 -5 140 -31 163 -15 13 -36 23 -46 23 -10 0 -22 5 -25 10
-4 6 5 10 20 10 34 0 75 42 76 77 4 202 -4 233 -66 259 -35 14 -215 20 -228 7z
m171 -95 c8 -8 12 -46 12 -103 0 -97 -7 -115 -47 -115 -23 0 -23 2 -23 115 0
113 0 115 23 115 13 0 28 -5 35 -12z"/>
<path d="M2533 1003 c9 -2 23 -2 30 0 6 3 -1 5 -18 5 -16 0 -22 -2 -12 -5z"/>
<path d="M2575 961 c-6 -5 -19 -11 -30 -14 -19 -4 -19 -5 1 -6 12 0 27 6 34
14 14 16 10 20 -5 6z"/>
<path d="M1875 830 c3 -5 8 -10 11 -10 2 0 4 5 4 10 0 6 -5 10 -11 10 -5 0 -7
-4 -4 -10z"/>
<path d="M1073 793 c9 -2 23 -2 30 0 6 3 -1 5 -18 5 -16 0 -22 -2 -12 -5z"/>
<path d="M1050 760 c0 -5 11 -10 25 -10 14 0 25 5 25 10 0 6 -11 10 -25 10
-14 0 -25 -4 -25 -10z"/>
<path d="M1037 676 c5 -90 11 -106 34 -106 11 0 22 6 25 14 5 14 -28 90 -43
98 -5 3 -2 3 4 2 11 -3 33 24 33 39 0 3 -13 7 -29 9 l-28 4 4 -60z"/>
<path d="M1870 730 c0 -5 -7 -10 -15 -10 -8 0 -15 -4 -15 -10 0 -5 7 -10 15
-10 8 0 15 5 15 10 0 6 7 10 15 10 8 0 15 5 15 10 0 6 -7 10 -15 10 -8 0 -15
-4 -15 -10z"/>
<path d="M2390 730 c0 -5 5 -10 11 -10 5 0 7 5 4 10 -3 6 -8 10 -11 10 -2 0
-4 -4 -4 -10z"/>
<path d="M2749 683 c-2 -10 -2 -169 1 -353 l5 -335 3 353 c1 193 0 352 -2 352
-2 0 -5 -8 -7 -17z"/>
<path d="M1633 663 c9 -2 23 -2 30 0 6 3 -1 5 -18 5 -16 0 -22 -2 -12 -5z"/>
<path d="M1834 628 c-7 -12 10 -16 44 -11 17 3 32 9 32 14 0 10 -70 8 -76 -3z"/>
<path d="M1616 601 c-3 -4 6 -6 19 -3 14 2 25 6 25 8 0 8 -39 4 -44 -5z"/>
<path d="M1830 540 c0 -5 7 -10 15 -10 8 0 15 5 15 10 0 6 -7 10 -15 10 -8 0
-15 -4 -15 -10z"/>
<path d="M5954 255 c0 -143 2 -200 3 -127 2 73 2 190 0 260 -1 70 -3 10 -3
-133z"/>
<path d="M4934 240 c0 -135 2 -190 3 -122 2 67 2 177 0 245 -1 67 -3 12 -3
-123z"/>
<path d="M2700 361 c0 -5 9 -11 19 -14 14 -3 18 -1 14 9 -6 15 -33 19 -33 5z"/>
<path d="M1528 343 c23 -2 59 -2 80 0 20 2 1 4 -43 4 -44 0 -61 -2 -37 -4z"/>
<path d="M2428 333 c7 -3 16 -2 19 1 4 3 -2 6 -13 5 -11 0 -14 -3 -6 -6z"/>
<path d="M2690 300 c0 -5 9 -10 21 -10 11 0 17 5 14 10 -3 6 -13 10 -21 10 -8
0 -14 -4 -14 -10z"/>
<path d="M1548 283 c18 -2 45 -2 60 0 15 2 0 4 -33 4 -33 0 -45 -2 -27 -4z"/>
<path d="M1888 253 c12 -2 30 -2 40 0 9 3 -1 5 -23 4 -22 0 -30 -2 -17 -4z"/>
<path d="M1588 213 c6 -2 18 -2 25 0 6 3 1 5 -13 5 -14 0 -19 -2 -12 -5z"/>
<path d="M1808 213 c12 -2 30 -2 40 0 9 3 -1 5 -23 4 -22 0 -30 -2 -17 -4z"/>
<path d="M1870 180 c0 -5 18 -10 40 -10 22 0 40 5 40 10 0 6 -18 10 -40 10
-22 0 -40 -4 -40 -10z"/>
<path d="M4374 90 c0 -52 1 -74 3 -47 2 26 2 68 0 95 -2 26 -3 4 -3 -48z"/>
<path d="M2721 154 c0 -11 3 -14 6 -6 3 7 2 16 -1 19 -3 4 -6 -2 -5 -13z"/>
<path d="M1815 150 l-40 -7 43 -2 c23 0 42 4 42 9 0 6 -1 9 -2 9 -2 -1 -21 -5
-43 -9z"/>
<path d="M2678 63 c6 -2 18 -2 25 0 6 3 1 5 -13 5 -14 0 -19 -2 -12 -5z"/>
<path d="M4193 35 c0 -22 2 -30 4 -17 2 12 2 30 0 40 -3 9 -5 -1 -4 -23z"/>
<path d="M2711 34 c0 -11 3 -14 6 -6 3 7 2 16 -1 19 -3 4 -6 -2 -5 -13z"/>
<path d="M4082 20 c0 -14 2 -19 5 -12 2 6 2 18 0 25 -3 6 -5 1 -5 -13z"/>
<path d="M855 20 c-30 -8 -30 -8 8 -9 23 -1 36 3 32 9 -3 6 -7 9 -8 9 -1 -1
-15 -5 -32 -9z"/>
<path d="M1793 23 c15 -2 37 -2 50 0 12 2 0 4 -28 4 -27 0 -38 -2 -22 -4z"/>
<path d="M2443 3 c9 -2 23 -2 30 0 6 3 -1 5 -18 5 -16 0 -22 -2 -12 -5z"/>
</g>
</svg>
